<svg viewBox="0 0 512 512" xmlns="http://www.w3.org/2000/svg" fill-rule="evenodd" clip-rule="evenodd" stroke-linejoin="round" stroke-miterlimit="2" role="img" aria-label="Proton"><path d="M58.625 375.794v130.204h91.197V381.422a45.734 45.734 0 0113.348-32.302 45.546 45.546 0 0132.24-13.388h93.514c43.618-.02 85.427-17.39 116.266-48.31 30.84-30.9 48.169-72.832 48.169-116.552 0-43.72-17.33-85.65-48.169-116.571a164.246 164.246 0 00-116.307-48.29H58.625v162.748h91.197V92.025h132.926a77.76 77.76 0 0155.035 22.835 78.104 78.104 0 0122.794 55.157 78.14 78.14 0 01-22.794 55.157 77.76 77.76 0 01-55.035 22.835h-96.642c-16.74 0-33.318 3.29-48.798 9.71a127.64 127.64 0 00-41.363 27.711 127.408 127.408 0 00-27.63 41.465c-6.399 15.5-9.69 32.119-9.69 48.9z" fill="#6d4aff" fill-rule="nonzero"/><path d="M6.76 16.232A6.727 6.727 0 002 18.208a6.756 6.756 0 00-1.972 4.771v1.634h4.489v-6.132c0-.596.236-1.168.657-1.59.42-.422.991-.659 1.586-.659z" fill="url(#prefix___Linear1)" fill-rule="nonzero" transform="matrix(20.31568 0 0 20.31568 58.056 5.968)"/><defs><linearGradient id="prefix___Linear1" x1="0" y1="0" x2="1" y2="0" gradientUnits="userSpaceOnUse" gradientTransform="matrix(0 -9.4176 9.4176 0 3.394 23.4)"><stop offset="0" stop-color="#6d4bfd"/><stop offset="1" stop-color="#1c0554"/></linearGradient></defs></svg>
